<?xml version="1.0" encoding="UTF-8" standalone="no"?>
<!-- Created with Inkscape (http://www.inkscape.org/) -->

<svg
   xmlns:dc="http://purl.org/dc/elements/1.1/"
   xmlns:cc="http://creativecommons.org/ns#"
   xmlns:rdf="http://www.w3.org/1999/02/22-rdf-syntax-ns#"
   xmlns:svg="http://www.w3.org/2000/svg"
   xmlns="http://www.w3.org/2000/svg"
   xmlns:sodipodi="http://sodipodi.sourceforge.net/DTD/sodipodi-0.dtd"
   xmlns:inkscape="http://www.inkscape.org/namespaces/inkscape"
   width="70.555557mm"
   height="70.555557mm"
   viewBox="0 0 250.00001 250"
   id="svg2"
   version="1.1"
   inkscape:version="0.91 r13725"
   sodipodi:docname="wprmvc-logo-icon-blue.svg"
   inkscape:export-filename="C:\Users\Alejandro\Documents\www\wordpress-rc\wp-content\themes\wpmvc-website\assets\img\wpmvs-icon-blue.png"
   inkscape:export-xdpi="90"
   inkscape:export-ydpi="90">
  <defs
     id="defs4" />
  <sodipodi:namedview
     id="base"
     pagecolor="#ffffff"
     bordercolor="#666666"
     borderopacity="1.0"
     inkscape:pageopacity="0.0"
     inkscape:pageshadow="2"
     inkscape:zoom="1.979899"
     inkscape:cx="56.814969"
     inkscape:cy="142.91475"
     inkscape:document-units="px"
     inkscape:current-layer="g4257"
     showgrid="false"
     fit-margin-top="0"
     fit-margin-left="0"
     fit-margin-right="0"
     fit-margin-bottom="0"
     inkscape:window-width="1920"
     inkscape:window-height="1017"
     inkscape:window-x="-8"
     inkscape:window-y="-8"
     inkscape:window-maximized="1">
    <inkscape:grid
       type="xygrid"
       id="grid4136"
       originx="-3.796999e-010"
       originy="-2.8257613e-005" />
  </sodipodi:namedview>
  <metadata
     id="metadata7">
    <rdf:RDF>
      <cc:Work
         rdf:about="">
        <dc:format>image/svg+xml</dc:format>
        <dc:type
           rdf:resource="http://purl.org/dc/dcmitype/StillImage" />
        <dc:title></dc:title>
      </cc:Work>
    </rdf:RDF>
  </metadata>
  <g
     inkscape:groupmode="layer"
     id="layer2"
     inkscape:label="Cog"
     transform="translate(0,-802.36217)" />
  <g
     inkscape:groupmode="layer"
     id="layer3"
     inkscape:label="Color"
     transform="translate(0,-802.36217)" />
  <g
     inkscape:groupmode="layer"
     id="layer4"
     inkscape:label="Color Borders"
     transform="translate(0,-802.36217)">
    <g
       id="g4179"
       transform="matrix(0.57076381,0,0,0.57117028,9.4797188,14.642521)">
      <g
         id="g4257"
         transform="matrix(0.35642114,0,0,0.3618903,-18.204371,1372.5721)">
        <path
           inkscape:connector-curvature="0"
           id="path4150"
           d="m 247.35742,18.128906 -14.89258,76.587891 c -28.37462,10.400883 -56.39091,24.770993 -81.5664,47.759763 L 74.828125,117.11914 4.5273438,243.17969 61.154297,295.5332 c -3.595742,29.45201 -4.801735,60.60007 -0.171875,94.65821 L 4.4765625,443.5 74.791016,565.94727 149.68555,543.47852 c 24.81849,18.54299 51.0481,37.17178 82.35156,46.93945 l 18.96484,76.91015 141.67969,-1.21093 16.9043,-72.89844 c 31.85025,-10.45182 58.92077,-27.10322 82.25,-47.68164 l 76.01562,20.06055 68.90039,-119.66993 -55.82617,-56.88281 c 6.17665,-29.90558 4.49144,-60.67854 0.39649,-92.72461 L 637.98633,241.79492 566.51953,119.45312 493.50977,142 C 466.9574,123.19293 439.74706,104.50098 410.55469,94.347656 L 392.59375,19.339844 247.35742,18.128906 Z m 24.50391,29.978516 97.19922,0.810547 16.49023,68.871091 8.38281,2.38086 c 27.27929,7.74742 57.44662,28.41289 88.39063,50.35156 l 5.98828,4.2461 64.41602,-19.89258 47.73242,81.70898 -50.5586,48.6504 1.03516,7.50585 c 5.0383,36.53565 6.77194,68.49608 -0.67383,97.27344 l -2.10937,8.14844 51.51953,52.49219 -46.25586,80.33984 -69.68555,-18.38867 -6.01172,5.63867 c -23.92154,22.43244 -51.1975,39.48488 -84.8125,49.07031 l -8.43945,2.40625 -15.49414,66.82422 -94.69727,0.81055 -17.51757,-71.04102 -8.71875,-2.16211 c -30.33659,-7.52457 -57.76911,-27.38777 -86.58008,-48.98242 l -6.00977,-4.5039 -66.597654,19.97851 -46.861328,-81.60351 50.728515,-47.85938 -1.25,-7.78125 C 85.576371,356.74176 87.10395,323.90323 91.519531,291.7207 l 1.054688,-7.6875 -50.632813,-46.8125 46.875,-84.05273 69.755864,23.25195 6.50585,-6.5039 c 25.13818,-25.12822 53.83815,-39.27565 85.19727,-49.97852 l 8.16016,-2.7832 1.64453,-8.46289 11.78125,-60.583988 z"
           style="color:#000000;font-style:normal;font-variant:normal;font-weight:normal;font-stretch:normal;font-size:medium;line-height:normal;font-family:sans-serif;text-indent:0;text-align:start;text-decoration:none;text-decoration-line:none;text-decoration-style:solid;text-decoration-color:#000000;letter-spacing:normal;word-spacing:normal;text-transform:none;direction:ltr;block-progression:tb;writing-mode:lr-tb;baseline-shift:baseline;text-anchor:start;white-space:normal;clip-rule:nonzero;display:inline;overflow:visible;visibility:visible;opacity:1;isolation:auto;mix-blend-mode:normal;color-interpolation:sRGB;color-interpolation-filters:linearRGB;solid-color:#000000;solid-opacity:1;fill:#494d55;fill-opacity:1;fill-rule:evenodd;stroke:none;stroke-width:29.77404976;stroke-linecap:butt;stroke-linejoin:miter;stroke-miterlimit:4;stroke-dasharray:none;stroke-dashoffset:0;stroke-opacity:1;color-rendering:auto;image-rendering:auto;shape-rendering:auto;text-rendering:auto;enable-background:accumulate" />
        <path
           inkscape:connector-curvature="0"
           id="path4153"
           d="m 321.73438,125.69922 c -120.30403,0 -219.05079,98.74676 -219.05079,219.05078 0,120.30402 98.74676,219.05078 219.05079,219.05078 120.30402,0 219.04882,-98.74676 219.04882,-219.05078 0,-120.30402 -98.7448,-219.05078 -219.04882,-219.05078 z m 0,113.8418 c 58.77926,0 105.20703,46.42972 105.20703,105.20898 0,58.77926 -46.42777,105.20898 -105.20703,105.20898 -58.77927,0 -105.20899,-46.42972 -105.20899,-105.20898 0,-58.77926 46.42972,-105.20898 105.20899,-105.20898 z"
           style="color:#000000;font-style:normal;font-variant:normal;font-weight:normal;font-stretch:normal;font-size:medium;line-height:normal;font-family:sans-serif;text-indent:0;text-align:start;text-decoration:none;text-decoration-line:none;text-decoration-style:solid;text-decoration-color:#000000;letter-spacing:normal;word-spacing:normal;text-transform:none;direction:ltr;block-progression:tb;writing-mode:lr-tb;baseline-shift:baseline;text-anchor:start;white-space:normal;clip-rule:nonzero;display:inline;overflow:visible;visibility:visible;opacity:1;isolation:auto;mix-blend-mode:normal;color-interpolation:sRGB;color-interpolation-filters:linearRGB;solid-color:#000000;solid-opacity:1;fill:#75c181;fill-opacity:1;fill-rule:evenodd;stroke:none;stroke-width:113.84194946;stroke-linecap:round;stroke-linejoin:miter;stroke-miterlimit:4;stroke-dasharray:none;stroke-dashoffset:0;stroke-opacity:1;color-rendering:auto;image-rendering:auto;shape-rendering:auto;text-rendering:auto;enable-background:accumulate" />
        <path
           inkscape:connector-curvature="0"
           id="path4158"
           d="m 320.72266,205.10938 c -76.3873,0 -138.63086,62.24356 -138.63086,138.63085 0,76.3873 62.24356,138.63086 138.63086,138.63086 76.38729,0 138.63086,-62.24356 138.63086,-138.63086 0,-76.38729 -62.24357,-138.63085 -138.63086,-138.63085 z m 0,29.77343 c 60.2962,0 108.85742,48.56122 108.85742,108.85742 0,60.29621 -48.56122,108.85743 -108.85742,108.85743 -60.29621,0 -108.85547,-48.56122 -108.85547,-108.85743 0,-60.2962 48.55926,-108.85742 108.85547,-108.85742 z"
           style="color:#000000;font-style:normal;font-variant:normal;font-weight:normal;font-stretch:normal;font-size:medium;line-height:normal;font-family:sans-serif;text-indent:0;text-align:start;text-decoration:none;text-decoration-line:none;text-decoration-style:solid;text-decoration-color:#000000;letter-spacing:normal;word-spacing:normal;text-transform:none;direction:ltr;block-progression:tb;writing-mode:lr-tb;baseline-shift:baseline;text-anchor:start;white-space:normal;clip-rule:nonzero;display:inline;overflow:visible;visibility:visible;opacity:1;isolation:auto;mix-blend-mode:normal;color-interpolation:sRGB;color-interpolation-filters:linearRGB;solid-color:#000000;solid-opacity:1;fill:#494d55;fill-opacity:1;fill-rule:evenodd;stroke:none;stroke-width:29.77404976;stroke-linecap:round;stroke-linejoin:miter;stroke-miterlimit:4;stroke-dasharray:none;stroke-dashoffset:0;stroke-opacity:1;color-rendering:auto;image-rendering:auto;shape-rendering:auto;text-rendering:auto;enable-background:accumulate" />
        <path
           inkscape:connector-curvature="0"
           id="path4160"
           d="M 315.63477,135.41602 C 238.4822,132.99785 158.12293,186.47946 125.50781,271.2168 l 27.78711,10.69531 C 181.46362,208.727 252.2784,163.21929 314.70117,165.17578 l 0.9336,-29.75976 z"
           style="color:#000000;font-style:normal;font-variant:normal;font-weight:normal;font-stretch:normal;font-size:medium;line-height:normal;font-family:sans-serif;text-indent:0;text-align:start;text-decoration:none;text-decoration-line:none;text-decoration-style:solid;text-decoration-color:#000000;letter-spacing:normal;word-spacing:normal;text-transform:none;direction:ltr;block-progression:tb;writing-mode:lr-tb;baseline-shift:baseline;text-anchor:start;white-space:normal;clip-rule:nonzero;display:inline;overflow:visible;visibility:visible;opacity:1;isolation:auto;mix-blend-mode:normal;color-interpolation:sRGB;color-interpolation-filters:linearRGB;solid-color:#000000;solid-opacity:1;fill:#494d55;fill-opacity:1;fill-rule:evenodd;stroke:none;stroke-width:29.77404976;stroke-linecap:butt;stroke-linejoin:miter;stroke-miterlimit:4;stroke-dasharray:none;stroke-dashoffset:0;stroke-opacity:1;color-rendering:auto;image-rendering:auto;shape-rendering:auto;text-rendering:auto;enable-background:accumulate" />
        <path
           inkscape:connector-curvature="0"
           id="path4160-6"
           d="m 493.12305,402.98242 c -26.2911,73.88042 -95.92262,121.18249 -158.375,120.82031 l -0.17188,29.77344 c 77.18916,0.44764 156.15653,-55.06893 186.59766,-140.61133 l -28.05078,-9.98242 z"
           style="color:#000000;font-style:normal;font-variant:normal;font-weight:normal;font-stretch:normal;font-size:medium;line-height:normal;font-family:sans-serif;text-indent:0;text-align:start;text-decoration:none;text-decoration-line:none;text-decoration-style:solid;text-decoration-color:#000000;letter-spacing:normal;word-spacing:normal;text-transform:none;direction:ltr;block-progression:tb;writing-mode:lr-tb;baseline-shift:baseline;text-anchor:start;white-space:normal;clip-rule:nonzero;display:inline;overflow:visible;visibility:visible;opacity:1;isolation:auto;mix-blend-mode:normal;color-interpolation:sRGB;color-interpolation-filters:linearRGB;solid-color:#000000;solid-opacity:1;fill:#494d55;fill-opacity:1;fill-rule:evenodd;stroke:none;stroke-width:29.77404976;stroke-linecap:butt;stroke-linejoin:miter;stroke-miterlimit:4;stroke-dasharray:none;stroke-dashoffset:0;stroke-opacity:1;color-rendering:auto;image-rendering:auto;shape-rendering:auto;text-rendering:auto;enable-background:accumulate" />
        <path
           inkscape:connector-curvature="0"
           id="path4150-5"
           d="m 974.60547,342.00391 -45.99805,63.03906 c -30.1129,-2.61131 -61.58546,-1.47765 -94.14453,8.66797 l -58.11914,-55.20703 -117.17187,84.34179 29.05273,71.41407 c -15.76048,25.14724 -30.07722,52.84355 -40.34375,85.65039 l -73.79883,24.31836 11.69336,140.69726 77.36328,11.4043 c 14.60081,27.31022 30.44248,55.29679 54.64063,77.41211 l -15.47852,77.6875 128.81445,58.96875 46.25782,-58.84766 c 33.28122,4.03863 64.8637,0.43674 94.72656,-8.30859 l 60.31839,50.39062 113.1894,-79.15234 -26.4043,-75.17578 c 18.289,-24.46207 29.8279,-53.04422 39.7246,-83.80078 l 74.459,-25.35352 -12.7773,-141.08984 -75.6895,-10.53321 c -16.0588,-28.28478 -32.7631,-56.74409 -54.8867,-78.31445 l 15.582,-75.54101 -131.00973,-62.66797 z m 9.46875,37.5332 87.67378,41.93945 -14.3066,69.35547 6.5859,5.71289 c 21.4115,18.5784 39.9566,50.07969 58.6641,83.06446 l 3.6231,6.38867 66.7734,9.29297 8.5351,94.22265 -66.4394,22.6211 -2.2481,7.23242 c -10.9482,35.22088 -22.9471,64.89802 -41.9082,87.80273 l -5.3691,6.48438 24.3711,69.375 -76.0039,53.14843 -55.29884,-46.19531 -7.83398,2.55664 c -31.1871,10.17309 -63.12894,14.05291 -97.63867,8.48242 l -8.65821,-1.39843 -42.40234,53.94531 -86.0918,-39.41016 14.29688,-71.75586 -6.98438,-5.6582 c -24.27468,-19.67281 -40.68147,-49.28573 -57.60351,-81.05469 l -3.53321,-6.63281 -68.78711,-10.14062 -7.79101,-93.75586 66.25781,-21.83399 2.16992,-7.57226 c 10.22542,-35.69529 25.55137,-64.78517 43.21289,-92.05664 l 4.21875,-6.51368 -25.97851,-63.85742 78.13867,-56.24805 53.29883,50.62696 8.64844,-3.12891 c 33.43404,-12.09879 65.43168,-12.74283 98.37304,-9.14062 l 8.56446,0.9375 5.08007,-6.96094 36.39063,-49.875 z"
           style="color:#000000;font-style:normal;font-variant:normal;font-weight:normal;font-stretch:normal;font-size:medium;line-height:normal;font-family:sans-serif;text-indent:0;text-align:start;text-decoration:none;text-decoration-line:none;text-decoration-style:solid;text-decoration-color:#000000;letter-spacing:normal;word-spacing:normal;text-transform:none;direction:ltr;block-progression:tb;writing-mode:lr-tb;baseline-shift:baseline;text-anchor:start;white-space:normal;clip-rule:nonzero;display:inline;overflow:visible;visibility:visible;opacity:1;isolation:auto;mix-blend-mode:normal;color-interpolation:sRGB;color-interpolation-filters:linearRGB;solid-color:#000000;solid-opacity:1;fill:#494d55;fill-opacity:1;fill-rule:evenodd;stroke:none;stroke-width:29.77404976;stroke-linecap:butt;stroke-linejoin:miter;stroke-miterlimit:4;stroke-dasharray:none;stroke-dashoffset:0;stroke-opacity:1;color-rendering:auto;image-rendering:auto;shape-rendering:auto;text-rendering:auto;enable-background:accumulate" />
        <path
           inkscape:connector-curvature="0"
           id="path4153-3"
           d="M 996.29008,470.95248 C 887.33784,419.94652 755.9974,467.50909 704.92881,576.43991 c -51.06859,108.93081 -3.57524,240.21654 105.37701,291.22251 108.9522,51.00594 240.29178,3.44078 291.36028,-105.49004 51.0686,-108.93081 3.5762,-240.21396 -105.37602,-291.2199 z M 947.96613,574.0289 c 53.21697,24.9135 75.55617,86.63754 50.59717,139.87591 -24.95904,53.23837 -86.71575,75.59291 -139.93269,50.67941 -53.21695,-24.9135 -75.55799,-86.63837 -50.59895,-139.87674 24.95904,-53.23837 86.71752,-75.59208 139.93447,-50.67858 z"
           style="color:#000000;font-style:normal;font-variant:normal;font-weight:normal;font-stretch:normal;font-size:medium;line-height:normal;font-family:sans-serif;text-indent:0;text-align:start;text-decoration:none;text-decoration-line:none;text-decoration-style:solid;text-decoration-color:#000000;letter-spacing:normal;word-spacing:normal;text-transform:none;direction:ltr;block-progression:tb;writing-mode:lr-tb;baseline-shift:baseline;text-anchor:start;white-space:normal;clip-rule:nonzero;display:inline;overflow:visible;visibility:visible;opacity:1;isolation:auto;mix-blend-mode:normal;color-interpolation:sRGB;color-interpolation-filters:linearRGB;solid-color:#000000;solid-opacity:1;fill:#f88c30;fill-opacity:1;fill-rule:evenodd;stroke:none;stroke-width:113.84195709;stroke-linecap:round;stroke-linejoin:miter;stroke-miterlimit:4;stroke-dasharray:none;stroke-dashoffset:0;stroke-opacity:1;color-rendering:auto;image-rendering:auto;shape-rendering:auto;text-rendering:auto;enable-background:accumulate" />
        <path
           inkscape:connector-curvature="0"
           id="path4158-4"
           d="m 961.66387,542.42786 c -69.17545,-32.38447 -151.96277,-2.40477 -184.39075,66.76508 -32.42799,69.16985 -2.49097,151.92141 66.68448,184.30588 69.17545,32.38446 151.96447,2.40556 184.3924,-66.76428 32.428,-69.16986 2.4893,-151.92221 -66.68613,-184.30668 z m -12.63833,26.95793 c 54.59856,25.5603 77.95906,90.12104 52.35966,144.72518 -25.59929,54.60413 -90.19073,77.9902 -144.78927,52.42991 -54.59854,-25.56029 -77.9573,-90.12022 -52.35797,-144.72435 25.59934,-54.60414 90.18903,-77.99103 144.78758,-52.43074 z"
           style="color:#000000;font-style:normal;font-variant:normal;font-weight:normal;font-stretch:normal;font-size:medium;line-height:normal;font-family:sans-serif;text-indent:0;text-align:start;text-decoration:none;text-decoration-line:none;text-decoration-style:solid;text-decoration-color:#000000;letter-spacing:normal;word-spacing:normal;text-transform:none;direction:ltr;block-progression:tb;writing-mode:lr-tb;baseline-shift:baseline;text-anchor:start;white-space:normal;clip-rule:nonzero;display:inline;overflow:visible;visibility:visible;opacity:1;isolation:auto;mix-blend-mode:normal;color-interpolation:sRGB;color-interpolation-filters:linearRGB;solid-color:#000000;solid-opacity:1;fill:#494d55;fill-opacity:1;fill-rule:evenodd;stroke:none;stroke-width:29.77404976;stroke-linecap:round;stroke-linejoin:miter;stroke-miterlimit:4;stroke-dasharray:none;stroke-dashoffset:0;stroke-opacity:1;color-rendering:auto;image-rendering:auto;shape-rendering:auto;text-rendering:auto;enable-background:accumulate" />
        <path
           inkscape:connector-curvature="0"
           id="path4160-1"
           d="m 900.94141,458.64062 c -50.53336,1.21703 -103.17842,21.56988 -144.11914,60.88477 l 20.62304,21.47656 c 56.5818,-54.33482 140.03487,-65.52247 195.72852,-37.28906 l 13.46289,-26.55664 c -25.81573,-13.08706 -55.3753,-19.24584 -85.69531,-18.51563 z"
           style="color:#000000;font-style:normal;font-variant:normal;font-weight:normal;font-stretch:normal;font-size:medium;line-height:normal;font-family:sans-serif;text-indent:0;text-align:start;text-decoration:none;text-decoration-line:none;text-decoration-style:solid;text-decoration-color:#000000;letter-spacing:normal;word-spacing:normal;text-transform:none;direction:ltr;block-progression:tb;writing-mode:lr-tb;baseline-shift:baseline;text-anchor:start;white-space:normal;clip-rule:nonzero;display:inline;overflow:visible;visibility:visible;opacity:1;isolation:auto;mix-blend-mode:normal;color-interpolation:sRGB;color-interpolation-filters:linearRGB;solid-color:#000000;solid-opacity:1;fill:#494d55;fill-opacity:1;fill-rule:evenodd;stroke:none;stroke-width:29.77404976;stroke-linecap:butt;stroke-linejoin:miter;stroke-miterlimit:4;stroke-dasharray:none;stroke-dashoffset:0;stroke-opacity:1;color-rendering:auto;image-rendering:auto;shape-rendering:auto;text-rendering:auto;enable-background:accumulate" />
        <path
           inkscape:connector-curvature="0"
           id="path4160-6-4"
           d="m 1033.7773,794.68945 c -55.17653,55.76047 -138.31927,69.07585 -194.71675,42.27344 l -12.7793,26.89063 c 69.71135,33.1297 164.78167,16.33376 228.66015,-48.22071 l -21.1641,-20.94336 z"
           style="color:#000000;font-style:normal;font-variant:normal;font-weight:normal;font-stretch:normal;font-size:medium;line-height:normal;font-family:sans-serif;text-indent:0;text-align:start;text-decoration:none;text-decoration-line:none;text-decoration-style:solid;text-decoration-color:#000000;letter-spacing:normal;word-spacing:normal;text-transform:none;direction:ltr;block-progression:tb;writing-mode:lr-tb;baseline-shift:baseline;text-anchor:start;white-space:normal;clip-rule:nonzero;display:inline;overflow:visible;visibility:visible;opacity:1;isolation:auto;mix-blend-mode:normal;color-interpolation:sRGB;color-interpolation-filters:linearRGB;solid-color:#000000;solid-opacity:1;fill:#494d55;fill-opacity:1;fill-rule:evenodd;stroke:none;stroke-width:29.77404976;stroke-linecap:butt;stroke-linejoin:miter;stroke-miterlimit:4;stroke-dasharray:none;stroke-dashoffset:0;stroke-opacity:1;color-rendering:auto;image-rendering:auto;shape-rendering:auto;text-rendering:auto;enable-background:accumulate" />
        <path
           inkscape:connector-curvature="0"
           id="path4150-59"
           d="m 266.73438,694.50391 -108.87696,61.41211 21.38672,62.32226 c -15.64331,18.8627 -29.61428,40.27085 -38.22656,66.5586 l -66.056642,13.39062 1.728515,124.2617 63.349607,14.4551 c 9.4904,22.1897 21.32923,44.6523 38.28516,66.8203 l -18.82422,62.6192 105.09375,61.2148 45.23437,-47.8594 c 24.89081,2.9841 50.95692,5.4238 77.23438,-0.1621 l 46.0625,48.0684 105.19141,-61.6973 -18.2793,-60.2051 c 18.06837,-20.4274 30.46343,-43.213 38.70703,-67.1679 l 63.78711,-17.2266 -0.0273,-118.83985 -64.49805,-18.04883 C 549.96209,860.7379 536.25428,839.66547 520.48633,818.8125 l 18.4375,-63.60742 -105.89258,-60.63281 -43.85352,47.15429 c -26.18067,-2.4771 -52.8685,-4.59058 -77.88476,-0.0937 l -44.55859,-47.1289 z m -5.64454,37.36914 40.22266,42.54297 8.44727,-2.11133 c 22.29859,-5.5767 52.47292,-3.27085 83.9375,-0.27539 l 7.31054,0.69726 37.73438,-40.57617 65.06445,37.25586 -16.07812,55.47852 4.64062,5.98828 c 18.768,24.20949 33.09527,46.31711 39.54883,69.68554 l 2.23828,8.10547 58.57813,16.39258 0.0176,73.45313 -57.45898,15.51953 -2.39844,7.8926 c -7.84918,25.8304 -20.24804,49.078 -40.23437,69.6523 l -6.11719,6.2969 16.46484,54.2285 -64.6582,37.9238 -41.88086,-43.7031 -8.63086,2.4688 c -24.40957,6.9836 -52.13595,4.1303 -81.91406,0.498 l -7.45899,-0.9101 -39.28906,41.5683 -64.4043,-37.5137 16.53907,-55.0214 -4.9668,-6.1211 c -19.31706,-23.7986 -31.74862,-47.8985 -41.89063,-72.8379 l -2.91992,-7.1817 -55.39843,-12.64059 -1.06055,-76.16602 59.5293,-12.07031 2.39453,-8.88867 c 7.57294,-28.11981 22.14596,-49.88961 40.19922,-70.48438 l 5.68554,-6.48633 -2.80078,-8.1582 -16.02148,-46.69336 67.02929,-37.80859 z"
           style="color:#000000;font-style:normal;font-variant:normal;font-weight:normal;font-stretch:normal;font-size:medium;line-height:normal;font-family:sans-serif;text-indent:0;text-align:start;text-decoration:none;text-decoration-line:none;text-decoration-style:solid;text-decoration-color:#000000;letter-spacing:normal;word-spacing:normal;text-transform:none;direction:ltr;block-progression:tb;writing-mode:lr-tb;baseline-shift:baseline;text-anchor:start;white-space:normal;clip-rule:nonzero;display:inline;overflow:visible;visibility:visible;opacity:1;isolation:auto;mix-blend-mode:normal;color-interpolation:sRGB;color-interpolation-filters:linearRGB;solid-color:#000000;solid-opacity:1;fill:#494d55;fill-opacity:1;fill-rule:evenodd;stroke:none;stroke-width:29.77405167;stroke-linecap:butt;stroke-linejoin:miter;stroke-miterlimit:4;stroke-dasharray:none;stroke-dashoffset:0;stroke-opacity:1;color-rendering:auto;image-rendering:auto;shape-rendering:auto;text-rendering:auto;enable-background:accumulate" />
        <path
           inkscape:connector-curvature="0"
           id="path4153-9"
           d="m 257.25108,801.56554 c -87.10834,50.09586 -117.46757,162.98098 -67.31637,250.06356 50.15114,87.0825 163.07536,117.5634 250.1837,67.4675 87.10835,-50.0959 117.47024,-162.98029 67.3191,-250.06281 C 457.28631,781.9512 344.35943,751.46967 257.25108,801.56554 Z m 56.81385,98.65162 c 33.74036,-19.40403 75.22032,-8.23048 94.6866,25.57078 19.46622,33.80116 8.2934,75.25296 -25.44696,94.65706 -33.74035,19.404 -75.21767,8.2311 -94.68388,-25.57002 -19.46628,-33.80126 -8.29612,-75.2538 25.44424,-94.65782 z"
           style="color:#000000;font-style:normal;font-variant:normal;font-weight:normal;font-stretch:normal;font-size:medium;line-height:normal;font-family:sans-serif;text-indent:0;text-align:start;text-decoration:none;text-decoration-line:none;text-decoration-style:solid;text-decoration-color:#000000;letter-spacing:normal;word-spacing:normal;text-transform:none;direction:ltr;block-progression:tb;writing-mode:lr-tb;baseline-shift:baseline;text-anchor:start;white-space:normal;clip-rule:nonzero;display:inline;overflow:visible;visibility:visible;opacity:1;isolation:auto;mix-blend-mode:normal;color-interpolation:sRGB;color-interpolation-filters:linearRGB;solid-color:#000000;solid-opacity:1;fill:#58bbee;fill-opacity:1;fill-rule:evenodd;stroke:none;stroke-width:113.84194946;stroke-linecap:round;stroke-linejoin:miter;stroke-miterlimit:4;stroke-dasharray:none;stroke-dashoffset:0;stroke-opacity:1;color-rendering:auto;image-rendering:auto;shape-rendering:auto;text-rendering:auto;enable-background:accumulate" />
        <path
           inkscape:connector-curvature="0"
           id="path4158-0"
           d="m 296.12708,874.95265 c -48.28694,27.76976 -64.99302,89.86717 -37.18403,138.15475 27.80903,48.2877 89.93029,65.0493 138.21722,37.2796 48.28693,-27.7698 64.99231,-89.86452 37.18328,-138.1522 C 406.53456,863.9472 344.414,847.1829 296.12708,874.95265 Z m 14.85871,25.80071 c 34.32914,-19.74265 77.76438,-8.02792 97.54808,26.32456 19.78371,34.35248 8.09681,77.76568 -26.23234,97.50828 -34.32914,19.7427 -77.7634,8.0296 -97.54711,-26.32287 -19.78371,-34.35248 -8.09777,-77.76733 26.23137,-97.50997 z"
           style="color:#000000;font-style:normal;font-variant:normal;font-weight:normal;font-stretch:normal;font-size:medium;line-height:normal;font-family:sans-serif;text-indent:0;text-align:start;text-decoration:none;text-decoration-line:none;text-decoration-style:solid;text-decoration-color:#000000;letter-spacing:normal;word-spacing:normal;text-transform:none;direction:ltr;block-progression:tb;writing-mode:lr-tb;baseline-shift:baseline;text-anchor:start;white-space:normal;clip-rule:nonzero;display:inline;overflow:visible;visibility:visible;opacity:1;isolation:auto;mix-blend-mode:normal;color-interpolation:sRGB;color-interpolation-filters:linearRGB;solid-color:#000000;solid-opacity:1;fill:#494d55;fill-opacity:1;fill-rule:evenodd;stroke:none;stroke-width:29.77405167;stroke-linecap:round;stroke-linejoin:miter;stroke-miterlimit:4;stroke-dasharray:none;stroke-dashoffset:0;stroke-opacity:1;color-rendering:auto;image-rendering:auto;shape-rendering:auto;text-rendering:auto;enable-background:accumulate" />
        <path
           inkscape:connector-curvature="0"
           id="path4160-14"
           d="m 244.98828,810.73242 c -49.89573,27.11026 -80.61595,90.60347 -70.47851,156.50391 l 29.42773,-4.52539 c -8.28604,-53.86504 18.4495,-105.8128 55.26562,-125.81641 l -14.21484,-26.16211 z"
           style="color:#000000;font-style:normal;font-variant:normal;font-weight:normal;font-stretch:normal;font-size:medium;line-height:normal;font-family:sans-serif;text-indent:0;text-align:start;text-decoration:none;text-decoration-line:none;text-decoration-style:solid;text-decoration-color:#000000;letter-spacing:normal;word-spacing:normal;text-transform:none;direction:ltr;block-progression:tb;writing-mode:lr-tb;baseline-shift:baseline;text-anchor:start;white-space:normal;clip-rule:nonzero;display:inline;overflow:visible;visibility:visible;opacity:1;isolation:auto;mix-blend-mode:normal;color-interpolation:sRGB;color-interpolation-filters:linearRGB;solid-color:#000000;solid-opacity:1;fill:#494d55;fill-opacity:1;fill-rule:evenodd;stroke:none;stroke-width:29.77405357;stroke-linecap:butt;stroke-linejoin:miter;stroke-miterlimit:4;stroke-dasharray:none;stroke-dashoffset:0;stroke-opacity:1;color-rendering:auto;image-rendering:auto;shape-rendering:auto;text-rendering:auto;enable-background:accumulate" />
        <path
           inkscape:connector-curvature="0"
           id="path4160-6-9"
           d="m 521.67383,946.53125 -29.30078,5.2793 c 10.05789,55.82255 -16.4319,110.60765 -54.45703,132.49215 l 14.85156,25.8047 c 50.89847,-29.2935 81.12982,-95.7338 68.90625,-163.57615 z"
           style="color:#000000;font-style:normal;font-variant:normal;font-weight:normal;font-stretch:normal;font-size:medium;line-height:normal;font-family:sans-serif;text-indent:0;text-align:start;text-decoration:none;text-decoration-line:none;text-decoration-style:solid;text-decoration-color:#000000;letter-spacing:normal;word-spacing:normal;text-transform:none;direction:ltr;block-progression:tb;writing-mode:lr-tb;baseline-shift:baseline;text-anchor:start;white-space:normal;clip-rule:nonzero;display:inline;overflow:visible;visibility:visible;opacity:1;isolation:auto;mix-blend-mode:normal;color-interpolation:sRGB;color-interpolation-filters:linearRGB;solid-color:#000000;solid-opacity:1;fill:#494d55;fill-opacity:1;fill-rule:evenodd;stroke:none;stroke-width:29.77404976;stroke-linecap:butt;stroke-linejoin:miter;stroke-miterlimit:4;stroke-dasharray:none;stroke-dashoffset:0;stroke-opacity:1;color-rendering:auto;image-rendering:auto;shape-rendering:auto;text-rendering:auto;enable-background:accumulate" />
      </g>
    </g>
  </g>
</svg>
